<?xml version="1.0" standalone="no"?>
<!DOCTYPE svg>
<svg version="1.0" xmlns="http://www.w3.org/2000/svg"
 width="513.000000pt" height="457.000000pt" viewBox="0 0 513.000000 457.000000"
 preserveAspectRatio="xMidYMid meet">

<g transform="translate(0.000000,457.000000) scale(0.100000,-0.100000)"
fill="#fff" stroke="none">
<path d="M2535 4480 c-44 -21 -460 -223 -924 -449 -464 -226 -847 -411 -850
-411 -4 0 -6 27 -5 61 1 35 -3 65 -10 72 -19 18 -435 14 -448 -4 -5 -8 -7 -84
-6 -169 3 -135 7 -161 26 -201 29 -59 68 -96 128 -118 l49 -19 2 -336 c1 -185
-1 -336 -5 -336 -4 0 -22 23 -40 50 -67 99 -281 280 -330 280 -27 0 -31 -26
-22 -138 15 -168 66 -297 153 -389 59 -63 99 -89 181 -119 103 -37 83 -48 -94
-54 l-155 -5 -3 -284 c-3 -322 2 -351 65 -416 64 -66 96 -75 278 -75 182 0
214 9 278 75 63 65 68 94 65 416 l-3 284 -155 5 -155 5 0 179 0 178 61 22 c83
30 122 56 183 121 85 90 134 214 152 388 11 104 5 137 -23 137 -50 0 -264
-184 -335 -288 l-38 -54 -3 173 c-1 95 1 175 5 179 5 4 29 14 55 24 80 30 138
113 138 200 0 25 4 55 9 68 7 19 191 112 930 472 551 268 925 445 933 440 7
-4 363 -230 791 -502 l777 -494 0 -1088 c0 -995 1 -1088 16 -1094 45 -17 44
-45 46 1078 l3 1062 390 -249 c215 -136 396 -251 403 -254 8 -3 21 2 30 11 15
15 15 17 0 32 -9 9 -198 132 -419 273 l-404 257 -5 340 -5 339 -25 0 -25 0 -5
-317 -5 -317 -770 490 c-423 270 -777 494 -785 498 -9 5 -45 -6 -95 -29z
m-1957 -842 c5 -122 -30 -192 -112 -223 -59 -23 -98 -17 -107 15 -9 33 -11
265 -2 274 4 3 54 5 112 4 l106 -3 3 -67z m120 -50 c1 -65 -1 -132 -6 -150 -8
-32 -10 -33 -65 -36 -53 -3 -73 7 -46 24 6 3 20 27 31 52 18 39 24 91 28 215
0 14 7 18 28 15 l27 -3 3 -117z m-83 -258 c-19 -31 -133 -34 -172 -4 -16 12
-5 13 80 14 61 0 96 -4 92 -10z m275 -261 c-20 -144 -61 -247 -128 -321 -34
-38 -116 -98 -133 -98 -5 0 33 61 83 134 78 115 89 137 78 150 -7 9 -18 16
-24 16 -7 0 -47 -51 -89 -112 -126 -186 -138 -196 -112 -93 32 123 117 238
254 347 40 32 75 57 77 55 3 -2 0 -37 -6 -78z m-638 -323 c124 -103 202 -214
233 -333 26 -101 14 -90 -112 95 -42 61 -82 112 -89 112 -6 0 -17 -7 -24 -16
-12 -13 0 -35 78 -150 51 -74 88 -134 84 -134 -18 0 -100 59 -134 98 -68 76
-115 199 -132 345 -7 69 -7 69 96 -17z m558 -866 c0 -283 -3 -302 -56 -352
-45 -42 -75 -48 -229 -48 -154 0 -184 6 -229 48 -53 50 -56 69 -56 352 l0 260
285 0 285 0 0 -260z"/>
<path d="M1828 3586 c-86 -35 -133 -79 -179 -166 -23 -43 -24 -54 -27 -287
l-3 -243 -146 0 c-161 0 -188 -8 -218 -64 -14 -28 -16 -103 -13 -716 l3 -685
290 0 290 0 3 143 3 142 672 -2 672 -3 5 -140 5 -140 287 -3 288 -2 5 22 c3
13 4 328 3 700 l-3 678 -33 32 -32 33 -155 3 -154 3 -3 237 c-3 236 -3 237
-31 293 -32 66 -99 132 -165 162 -46 22 -55 22 -677 24 l-630 3 -57 -24z
m1337 -55 c56 -25 101 -66 133 -120 l27 -46 3 -237 3 -238 -33 0 c-42 -1 -74
-19 -99 -56 -17 -26 -19 -48 -19 -241 0 -117 -2 -213 -4 -213 -2 0 -55 9 -118
19 -298 51 -938 49 -1170 -3 l-58 -13 0 207 c0 199 -1 208 -23 241 -26 39 -60
59 -99 59 l-28 0 0 228 c0 218 1 229 24 277 29 60 76 107 136 134 44 20 63 21
665 21 579 0 623 -2 660 -19z m-1411 -723 c14 -20 16 -101 16 -675 l0 -653
-235 0 -235 0 0 657 c0 597 2 658 17 675 15 16 35 18 219 18 198 0 203 -1 218
-22z m1940 0 c14 -20 16 -101 16 -675 l0 -653 -235 0 -235 0 0 657 c0 597 2
658 17 675 15 16 35 18 219 18 198 0 203 -1 218 -22z m-909 -438 c161 -10 245
-21 343 -42 l52 -11 0 -279 0 -278 -675 0 -675 0 0 279 c0 154 4 282 8 285 20
12 179 37 287 45 175 12 476 12 660 1z"/>
<path d="M507 833 c-4 -3 -7 -145 -7 -315 0 -277 2 -309 16 -315 9 -3 24 -2
33 4 14 9 16 47 19 308 2 211 -1 302 -9 311 -12 15 -41 19 -52 7z"/>
<path d="M737 833 c-4 -3 -7 -145 -7 -314 0 -301 0 -308 20 -314 46 -15 49 2
52 253 l3 236 205 -247 c158 -191 209 -247 225 -245 19 3 20 11 23 315 2 307
2 312 -18 318 -46 15 -49 -1 -52 -253 l-3 -236 -190 230 c-104 126 -198 237
-207 246 -19 19 -40 23 -51 11z"/>
<path d="M3022 828 c-9 -9 -12 -91 -12 -309 0 -317 2 -329 50 -314 20 6 20 13
20 309 0 303 -3 326 -35 326 -6 0 -16 -5 -23 -12z"/>
<path d="M3445 827 c-138 -46 -217 -155 -218 -300 -1 -134 58 -238 167 -295
43 -22 64 -27 131 -27 131 0 219 56 274 174 37 81 37 203 0 281 -32 66 -85
121 -146 150 -56 26 -155 34 -208 17z m183 -86 c80 -41 125 -119 125 -221 0
-82 -25 -142 -81 -192 -150 -136 -372 -21 -372 193 0 185 171 300 328 220z"/>
<path d="M1359 814 c-9 -11 -10 -20 -2 -32 8 -13 31 -18 109 -22 l99 -5 5
-275 c5 -254 6 -275 23 -278 45 -9 47 5 47 289 l0 268 102 3 c90 3 103 5 106
21 9 44 -7 47 -248 47 -195 0 -229 -2 -241 -16z"/>
<path d="M1952 818 c-18 -18 -17 -567 1 -591 11 -16 33 -17 212 -15 l200 3 0
30 0 30 -172 3 -172 2 -5 43 c-4 23 -5 75 -3 116 l4 74 134 0 c74 0 142 4 152
9 9 5 17 19 17 32 0 33 -27 38 -179 35 l-126 -3 0 70 c-1 113 -16 103 174 106
l166 3 0 30 0 30 -195 3 c-144 2 -199 -1 -208 -10z"/>
<path d="M2513 824 c-10 -4 -13 -76 -13 -310 0 -273 2 -305 16 -311 36 -14 49
10 52 96 l3 81 57 0 57 0 63 -85 c66 -91 83 -105 107 -85 25 20 18 39 -41 118
l-56 74 35 31 c55 52 72 92 72 179 0 69 -3 80 -30 119 -46 65 -105 91 -218 95
-50 2 -98 1 -104 -2z m220 -93 c43 -26 62 -71 60 -135 -2 -87 -59 -138 -158
-144 l-65 -4 0 157 0 158 64 -5 c41 -4 77 -13 99 -27z"/>
<path d="M3983 819 c-10 -10 -13 -85 -13 -305 0 -309 2 -321 47 -312 15 3 19
17 23 88 l5 85 56 3 57 3 66 -91 c68 -92 95 -109 114 -72 13 23 3 44 -57 122
l-50 65 36 29 c49 40 73 97 73 173 0 73 -11 108 -48 146 -49 52 -98 70 -202
75 -70 3 -98 0 -107 -9z m216 -83 c67 -35 92 -132 53 -206 -25 -47 -90 -80
-159 -80 l-53 0 0 148 c0 82 3 152 8 156 11 13 116 0 151 -18z"/>
</g>
</svg>
